<svg width="512" height="512" viewBox="0 0 512 512" fill="none" xmlns="http://www.w3.org/2000/svg">
<g clip-path="url(#clip0_2_2)">
<path d="M511.672 391.952C511.672 391.952 414.141 263.378 331.209 180.462C248.278 97.531 119.705 0 119.705 0C119.705 0 255.711 0.328003 383.535 128.136C511.344 255.945 511.672 391.952 511.672 391.952Z" fill="#F6BB42"/>
<path d="M380.943 85.507L9.369 457.082C-3.123 469.574 -3.123 489.811 9.369 502.303C21.861 514.795 42.098 514.795 54.59 502.303L426.164 130.729L380.943 85.507Z" fill="#8C4C4C"/>
<path d="M282.965 183.485L328.185 228.705L426.167 130.723L380.947 85.5033L282.965 183.485Z" fill="#FFCE54"/>
<path d="M365.859 160.881C361.705 165.05 354.944 165.035 350.791 160.881C346.621 156.712 346.621 149.966 350.791 145.797C354.944 141.644 361.705 141.644 365.859 145.797C370.029 149.966 370.029 156.712 365.859 160.881Z" fill="#434A54"/>
</g>
<defs>
<clipPath id="clip0_2_2">
<rect width="511.672" height="511.672" fill="white"/>
</clipPath>
</defs>
</svg>
