<svg width="1024" height="1024" viewBox="0 0 1024 1024" fill="none" xmlns="http://www.w3.org/2000/svg">
<g clip-path="url(#clip0_1_17)">
<path d="M712.331 767.868L857.038 912.705ZM790.371 579.371C790.371 726.648 670.981 846.038 523.705 846.038C376.429 846.038 257.038 726.648 257.038 579.371C257.038 432.095 376.429 312.705 523.705 312.705C670.981 312.705 790.371 432.095 790.371 579.371Z" fill="url(#paint0_linear_1_17)"/>
<path d="M690.371 579.371C690.371 671.419 615.751 746.038 523.705 746.038M712.331 767.868L857.038 912.705M790.371 579.371C790.371 726.648 670.981 846.038 523.705 846.038C376.429 846.038 257.038 726.648 257.038 579.371C257.038 432.095 376.429 312.705 523.705 312.705C670.981 312.705 790.371 432.095 790.371 579.371Z" stroke="#051926" stroke-width="66.6667" stroke-linecap="round" stroke-linejoin="round"/>
<g clip-path="url(#clip1_1_17)">
<path d="M290.529 189.734C253.394 211.718 205.301 199.392 183.317 162.257C161.333 125.121 173.659 77.0279 210.794 55.044C247.929 33.0602 296.023 45.3859 318.007 82.5213C339.99 119.657 327.665 167.75 290.529 189.734Z" fill="#BA7620"/>
<path d="M318.007 82.5213C296.023 45.3859 247.929 33.0602 210.794 55.044L290.529 189.734C327.665 167.75 339.99 119.657 318.007 82.5213Z" fill="#BA7620"/>
<path d="M263.95 144.836C127.764 225.458 82.5792 401.762 163.2 537.949L189.779 582.845C197.132 595.266 213.093 599.359 225.517 592.004L674.483 326.22C686.905 318.866 690.996 302.904 683.642 290.482L657.064 245.586C576.442 109.401 400.137 64.2152 263.95 144.836Z" fill="#EBAB44"/>
<path d="M657.063 245.588L683.642 290.484C690.995 302.905 686.906 318.867 674.482 326.222L450 459.114L263.95 144.836C400.137 64.2152 576.442 109.401 657.063 245.588Z" fill="#F6CB70"/>
<path d="M562.241 392.668L337.759 525.56L218.156 323.525C181.459 261.536 201.963 181.534 263.951 144.838C325.939 108.141 405.942 128.645 442.638 190.633L562.241 392.668Z" fill="#F6CB70"/>
<path d="M562.241 392.668L442.638 190.633C405.941 128.644 325.939 108.141 263.951 144.838L450 459.114L562.241 392.668Z" fill="#EBAB44"/>
<path d="M700.283 250.316L146.559 578.116C109.443 600.088 97.1102 648.215 119.081 685.329C141.052 722.443 189.179 734.778 226.294 712.806L780.019 385.006C817.132 363.035 829.468 314.909 807.496 277.793C785.525 240.68 737.397 228.345 700.283 250.316Z" fill="#FCE39D"/>
<path d="M807.496 277.793C829.467 314.907 817.134 363.034 780.019 385.006L503.156 548.906L423.421 414.216L700.283 250.316C737.397 228.345 785.525 240.68 807.496 277.793Z" fill="#F6CB70"/>
<path d="M657.182 275.832L602.227 490.257L538.774 527.821L593.728 313.396L657.182 275.832Z" fill="#BA7620"/>
</g>
</g>
<defs>
<linearGradient id="paint0_linear_1_17" x1="557.038" y1="312.705" x2="557.038" y2="912.705" gradientUnits="userSpaceOnUse">
<stop stop-color="#D9D9D9"/>
<stop offset="1" stop-color="#2463B2"/>
</linearGradient>
<clipPath id="clip0_1_17">
<rect width="1024" height="1024" fill="white"/>
</clipPath>
<clipPath id="clip1_1_17">
<rect width="800" height="800" fill="white" transform="translate(-191 161.536) rotate(-30.6252)"/>
</clipPath>
</defs>
</svg>
